# xmcd CD database file
#
# Track frame offsets:
#	150
#	7990
#	18590
#	29128
#	40065
#	50490
#	59753
#	68728
#	81203
#	90415
#
# Disc length: 1342 seconds
#
# Revision: 0
# Processed by: cddbd v1.5PL3 Copyright (c) Steve Scherf et al.
# Submitted via: CDex 1.51
#
DISCID=7e053c0a
DTITLE=Grandpa Jones - Good Ole Mountain Dew
DYEAR=1900
DGENRE=Country
TTITLE0=Old Rattler
TTITLE1=Eight More Miles to Louisville
TTITLE2=Banjoe Sam
TTITLE3=Night Train to Memphis
TTITLE4=Nashville on my mind
TTITLE5=Old Blue
TTITLE6=Mountain Dew
TTITLE7=King of Cannon County Hills
TTITLE8=Are You from Dixie
TTITLE9=T for Texas
EXTD=
EXTT0=
EXTT1=
EXTT2=
EXTT3=
EXTT4=
EXTT5=
EXTT6=
EXTT7=
EXTT8=
EXTT9=
PLAYORDER=
